<svg id="Capa_1" enable-background="new 0 0 512 512" height="512" viewBox="0 0 512 512" width="512" xmlns="http://www.w3.org/2000/svg"><path d="m490.5 440.5h-469c-7.732 0-14-6.268-14-14v-332c0-7.732 6.268-14 14-14h469c7.732 0 14 6.268 14 14v332c0 7.732-6.268 14-14 14z" fill="#ff5252"/><path d="m490.5 80.5h-30c7.732 0 14 6.268 14 14v332c0 7.732-6.268 14-14 14h30c7.732 0 14-6.268 14-14v-332c0-7.732-6.268-14-14-14z" fill="#ed4c4c"/><path d="m36 55.5h220v323h-220z" fill="#f7f3f1"/><path d="m256 55.5h220v323h-220z" fill="#efe7e3"/><path d="m36 378.5h220v30h-220z" fill="#ebe1dc"/><path d="m256 378.5h220v30h-220z" fill="#dcd2cd"/><path d="m269.5 456.5h-27c-4.418 0-8-3.582-8-8v-40h43v40c0 4.418-3.582 8-8 8z" fill="#d64545"/><path d="m299.536 106.348h134v50h-134z" fill="#fdd835"/><path d="m490.5 73h-7v-17.5c0-4.142-3.358-7.5-7.5-7.5h-28.365c-4.142 0-7.5 3.358-7.5 7.5s3.358 7.5 7.5 7.5h20.865v256.499c0 4.142 3.358 7.5 7.5 7.5s7.5-3.358 7.5-7.5v-231.499h7c3.584 0 6.5 2.916 6.5 6.5v332c0 3.584-2.916 6.5-6.5 6.5h-205.5v-17h191c4.142 0 7.5-3.358 7.5-7.5v-56.908c0-4.142-3.358-7.5-7.5-7.5s-7.5 3.358-7.5 7.5v19.408h-205v-308h152.601c4.142 0 7.5-3.358 7.5-7.5s-3.358-7.5-7.5-7.5h-380.101c-4.142 0-7.5 3.358-7.5 7.5v17.5h-7c-11.855 0-21.5 9.645-21.5 21.5v33.185c0 4.142 3.358 7.5 7.5 7.5s7.5-3.358 7.5-7.5v-33.185c0-3.584 2.916-6.5 6.5-6.5h7v320.5c0 4.142 3.358 7.5 7.5 7.5h191v17h-205.5c-3.584 0-6.5-2.916-6.5-6.5v-266.815c0-4.142-3.358-7.5-7.5-7.5s-7.5 3.358-7.5 7.5v266.815c0 11.855 9.645 21.5 21.5 21.5h205.5v.5c0 8.547 6.953 15.5 15.5 15.5h27c8.547 0 15.5-6.953 15.5-15.5v-.5h205.5c11.855 0 21.5-9.645 21.5-21.5v-332c0-11.855-9.645-21.5-21.5-21.5zm-22 313v15h-205v-15zm-425-323h205v308h-205zm0 323h205v15h-205zm226.5 62.5c0 .276-.224.5-.5.5h-27c-.276 0-.5-.224-.5-.5v-32.5h28z"/><path d="m121.435 113.848h92.308c4.142 0 7.5-3.358 7.5-7.5s-3.358-7.5-7.5-7.5h-92.308c-4.142 0-7.5 3.358-7.5 7.5s3.357 7.5 7.5 7.5z"/><path d="m79.742 143.848h134c4.142 0 7.5-3.358 7.5-7.5s-3.358-7.5-7.5-7.5h-134c-4.142 0-7.5 3.358-7.5 7.5s3.358 7.5 7.5 7.5z"/><path d="m79.742 173.848h134c4.142 0 7.5-3.358 7.5-7.5s-3.358-7.5-7.5-7.5h-134c-4.142 0-7.5 3.358-7.5 7.5s3.358 7.5 7.5 7.5z"/><path d="m79.742 203.848h102.752c4.142 0 7.5-3.358 7.5-7.5s-3.358-7.5-7.5-7.5h-102.752c-4.142 0-7.5 3.358-7.5 7.5s3.358 7.5 7.5 7.5z"/><path d="m213.742 248.474h-92.308c-4.142 0-7.5 3.358-7.5 7.5s3.358 7.5 7.5 7.5h92.308c4.142 0 7.5-3.358 7.5-7.5s-3.358-7.5-7.5-7.5z"/><path d="m79.742 293.474h134c4.142 0 7.5-3.358 7.5-7.5s-3.358-7.5-7.5-7.5h-134c-4.142 0-7.5 3.358-7.5 7.5s3.358 7.5 7.5 7.5z"/><path d="m79.742 323.474h56.661c4.142 0 7.5-3.358 7.5-7.5s-3.358-7.5-7.5-7.5h-56.661c-4.142 0-7.5 3.358-7.5 7.5s3.358 7.5 7.5 7.5z"/><path d="m430.391 198.763h-92.307c-4.142 0-7.5 3.358-7.5 7.5s3.358 7.5 7.5 7.5h92.307c4.142 0 7.5-3.358 7.5-7.5s-3.358-7.5-7.5-7.5z"/><path d="m437.891 236.263c0-4.142-3.358-7.5-7.5-7.5h-134c-4.142 0-7.5 3.358-7.5 7.5s3.358 7.5 7.5 7.5h134c4.142 0 7.5-3.358 7.5-7.5z"/><path d="m296.391 258.763c-4.142 0-7.5 3.358-7.5 7.5s3.358 7.5 7.5 7.5h56.662c4.142 0 7.5-3.358 7.5-7.5s-3.358-7.5-7.5-7.5z"/><path d="m292.036 106.348v50c0 4.142 3.358 7.5 7.5 7.5h134c4.142 0 7.5-3.358 7.5-7.5v-50c0-4.142-3.358-7.5-7.5-7.5h-134c-4.142 0-7.5 3.358-7.5 7.5zm15 7.5h119v35h-119z"/></svg>