<svg id="Capa_1" enable-background="new 0 0 512.186 512.186" height="512" viewBox="0 0 512.186 512.186" width="512" xmlns="http://www.w3.org/2000/svg"><g><g><path d="m33.785 77.122v405.822c0 12.007 9.734 21.741 21.741 21.741h314.889c12.007 0 21.74-9.733 21.74-21.74v-453.702c0-12.007-9.733-21.74-21.74-21.74h-263.198z" fill="#f9f7f8"/></g><g><path d="m392.153 29.244v453.7c0 12.01-9.73 21.74-21.74 21.74h-20.47c12 0 21.74-9.73 21.74-21.74v-453.7c0-12.01-9.74-21.74-21.74-21.74h20.47c12.01 0 21.74 9.73 21.74 21.74z" fill="#efedef"/></g><g><path d="m107.217 7.503v53.645c0 9.359-7.587 16.946-16.946 16.946h-56.486z" fill="#bfbfbf"/></g><g><circle cx="392.155" cy="125.094" fill="#ee6161" r="86.246"/></g><g><path d="m478.403 125.094c0 47.63-38.62 86.25-86.25 86.25-17.94 0-34.6-5.48-48.4-14.85 9.7 3.78 20.25 5.85 31.29 5.85 47.63 0 86.24-38.62 86.24-86.25 0-29.7-15.01-55.9-37.87-71.41 32.18 12.52 54.99 43.8 54.99 80.41z" fill="#e94444"/></g><g><path d="m82.701 132.594h99.263c4.142 0 7.5-3.358 7.5-7.5s-3.358-7.5-7.5-7.5h-99.263c-4.142 0-7.5 3.358-7.5 7.5s3.358 7.5 7.5 7.5z"/><path d="m82.701 170.512h176.753c4.142 0 7.5-3.358 7.5-7.5s-3.358-7.5-7.5-7.5h-176.753c-4.142 0-7.5 3.358-7.5 7.5s3.358 7.5 7.5 7.5z"/><path d="m399.655 31.649v-2.406c0-16.123-13.117-29.24-29.24-29.24-.42 0-262.322-.007-262.807 0-3.854.057-6.267 2.687-8.938 5.059-8.213 7.292-64.91 57.636-69.865 62.035-1.603 1.423-2.521 3.465-2.521 5.608v239.889c0 4.142 3.358 7.5 7.5 7.5s7.5-3.358 7.5-7.5v-227h48.986c13.479 0 24.446-10.966 24.446-24.446v-46.145h255.699c7.852 0 14.24 6.388 14.24 14.24v2.411c-15.768 1.251-30.898 6.433-44.142 15.189-3.455 2.285-4.404 6.938-2.12 10.393 2.285 3.455 6.938 4.405 10.393 2.12 12.871-8.509 27.868-13.007 43.369-13.007 43.42 0 78.746 35.325 78.746 78.746s-35.325 78.746-78.746 78.746c-43.42 0-78.746-35.325-78.746-78.746 0-15.294 4.387-30.121 12.686-42.878 2.259-3.472 1.275-8.118-2.197-10.376-3.471-2.259-8.118-1.276-10.376 2.197-9.887 15.197-15.112 32.852-15.112 51.058 0 49.167 38.048 89.612 86.246 93.445v264.406c0 7.852-6.388 14.24-14.24 14.24h-314.89c-7.853 0-14.241-6.389-14.241-14.242v-135.35c0-4.142-3.358-7.5-7.5-7.5s-7.5 3.358-7.5 7.5v135.35c0 16.124 13.118 29.242 29.241 29.242h314.89c16.123 0 29.24-13.117 29.24-29.24v-264.407c48.198-3.834 86.246-44.278 86.246-93.445s-38.049-89.612-86.247-93.446zm-299.938 29.5c0 5.208-4.237 9.446-9.446 9.446h-37.862l47.308-45.478z"/><path d="m380.548 95.913c-1.376-3.345-4.601-5.504-8.217-5.504-.003 0-.007 0-.01 0-3.62.004-6.844 2.171-8.215 5.521-.023.057-.046.113-.067.17l-22.962 60.291c-1.474 3.871.468 8.204 4.339 9.678 3.87 1.475 8.204-.469 9.678-4.339l3.879-10.185h26.54l3.836 10.164c1.134 3.003 3.987 4.854 7.019 4.854.879 0 1.775-.156 2.646-.485 3.875-1.462 5.832-5.79 4.369-9.665l-22.753-60.294c-.026-.069-.053-.138-.082-.206zm-15.861 40.632 7.618-20.002 7.549 20.002z"/><path d="m421.224 83.628c-4.142 0-7.5 3.358-7.5 7.5v7.501h-7.862c-4.142 0-7.5 3.358-7.5 7.5s3.358 7.5 7.5 7.5h7.862v7.862c0 4.142 3.358 7.5 7.5 7.5s7.5-3.358 7.5-7.5v-7.862h7.501c4.142 0 7.5-3.358 7.5-7.5s-3.358-7.5-7.5-7.5h-7.501v-7.501c0-4.142-3.358-7.5-7.5-7.5z"/><path d="m82.701 263.594h260.539c4.142 0 7.5-3.358 7.5-7.5s-3.358-7.5-7.5-7.5h-260.539c-4.142 0-7.5 3.358-7.5 7.5s3.358 7.5 7.5 7.5z"/><path d="m82.701 300.876h260.539c4.142 0 7.5-3.358 7.5-7.5s-3.358-7.5-7.5-7.5h-260.539c-4.142 0-7.5 3.358-7.5 7.5s3.358 7.5 7.5 7.5z"/><path d="m82.701 338.158h260.539c4.142 0 7.5-3.358 7.5-7.5s-3.358-7.5-7.5-7.5h-260.539c-4.142 0-7.5 3.358-7.5 7.5s3.358 7.5 7.5 7.5z"/><path d="m82.701 375.44h122c4.142 0 7.5-3.358 7.5-7.5s-3.358-7.5-7.5-7.5h-122c-4.142 0-7.5 3.358-7.5 7.5s3.358 7.5 7.5 7.5z"/></g></g></svg>